<svg width="40" height="46" viewBox="0 0 40 46" fill="none" xmlns="http://www.w3.org/2000/svg">
<path fill-rule="evenodd" clip-rule="evenodd" d="M11.1707 39.8351C15.0172 37.2532 18.8637 35.9885 22.6048 38.0435C23.7113 38.6231 25.0813 38.8866 26.0825 38.1489C27.3471 37.2005 26.1879 35.567 25.1867 34.882C20.6552 31.6678 15.9656 34.6186 11.1707 39.8351ZM11.4341 32.6163C10.3803 29.244 8.37801 31.1409 5.8488 26.3986C6.90264 32.0367 8.64147 29.5074 11.4341 32.6163ZM14.1741 31.7732C9.64261 28.3482 12.4353 24.9759 7.58763 21.7617C10.6438 25.6082 8.06186 29.244 14.1741 31.7732ZM30.4559 31.4044C32.0893 31.4044 33.354 32.7217 33.354 34.3024C33.354 35.8832 32.0367 37.2005 30.4559 37.2005C28.8225 37.2005 27.5578 35.8832 27.5578 34.3024C27.5578 32.7217 28.8751 31.4044 30.4559 31.4044ZM19.6014 6.21764C18.1787 6.16495 16.5979 6.79725 15.8076 7.58763C17.1249 7.00802 18.3895 6.53379 19.496 6.69187C18.4422 9.37915 13.5418 9.80069 11.9611 7.06071C15.9656 8.27262 16.4926 2.73998 19.6014 6.21764ZM27.5052 6.05956C26.6094 4.79496 25.0286 3.79382 23.8167 3.63574C25.134 4.42612 26.3986 5.21649 26.9782 6.32302C23.8167 7.1134 20.3391 3.10882 21.8144 0C23.2898 4.16266 28.6644 1.15922 27.5052 6.05956ZM0.316151 28.6644C1.36999 32.669 3.31959 36.6735 7.7984 37.3058C13.9107 38.2543 15.8603 31.2463 24.0802 32.142C16.1237 28.1902 13.4891 35.3562 8.32532 35.2509C5.37457 35.1982 2.31844 32.4582 0.316151 28.6644C0.158076 27.6632 0 26.7148 0 25.7136C0 25.8717 0 26.0825 0 26.2406C0 37.1478 8.85223 46 19.7595 46C30.6667 46 39.5189 37.1478 39.5189 26.2406C39.5189 15.3333 30.6667 6.4811 19.7595 6.4811C19.6014 6.4811 19.3906 6.4811 19.2325 6.4811C29.2967 6.74456 37.4112 15.0172 37.4112 25.1867C37.4112 35.5143 29.0332 43.8396 18.7056 43.8396C9.58992 43.8396 2.00229 37.3058 0.316151 28.6644ZM2.52921 30.4559C2.52921 30.4559 3.42497 28.4009 3.10882 26.0298C2.79267 23.6587 2.89805 22.236 5.26919 20.1283C8.06186 17.6518 5.79611 17.0722 7.53494 14.701C9.53723 11.9611 13.9633 13.6472 14.3322 17.3356C14.4903 18.9164 13.858 20.6552 12.5407 21.4983C11.5395 22.1306 10.2749 22.1306 9.16839 21.3402C12.8568 21.3402 13.858 18.2314 12.2245 16.071C10.9599 14.3849 9.16839 14.5956 8.79954 16.8614C8.4307 19.1798 8.16724 20.181 6.4811 21.3402C4.95304 22.394 4.16266 23.7113 4.32073 25.5556C4.42612 27.3998 4.26804 29.6128 2.52921 30.4559ZM27.5052 10.3276C25.7136 10.6438 23.8694 11.9084 23.1317 13.1203C24.6071 12.0664 26.0825 11.118 27.5578 11.0126C26.8729 14.7537 20.866 16.6506 18.1787 13.5418C23.3952 13.9633 22.7102 6.69187 27.5052 10.3276Z" fill="#A17A3A"/>
</svg>
